Coordinates
version=1
nRows=9
nColumns=36
inDegrees=yes

Units are S.I. units (second, meters, Newtons, ...)
If the header above contains a line with 'inDegrees', this indicates whether rotational values are in degrees (yes) or radians (no).

endheader
time	pelvis_tilt	pelvis_list	pelvis_rotation	pelvis_tx	pelvis_ty	pelvis_tz	hip_flexion_r	hip_adduction_r	hip_rotation_r	knee_angle_r	knee_angle_r_beta	ankle_angle_r	subtalar_angle_r	mtp_angle_r	hip_flexion_l	hip_adduction_l	hip_rotation_l	knee_angle_l	knee_angle_l_beta	ankle_angle_l	subtalar_angle_l	mtp_angle_l	lumbar_extension	lumbar_bending	lumbar_rotation	arm_flex_r	arm_add_r	arm_rot_r	elbow_flex_r	pro_sup_r	arm_flex_l	arm_add_l	arm_rot_l	elbow_flex_l	pro_sup_l
      0.00000000	     -1.49021954	      1.59896463	     33.61156943	     -1.01554785	      1.30523793	     -0.05857053	      3.64438217	     -1.12713341	    -11.63345257	     18.54365009	      0.32364775	      3.47381208	    -32.09816384	     -6.94821864	     10.57294653	      2.39362402	     26.80629580	     18.10344482	      0.31596472	      8.13986020	      3.02622875	     -6.94821864	    -10.93071889	     -2.30003911	     14.15660733	     16.49381279	     -5.02606833	     44.81538336	     22.91069678	     67.38063945	     11.90868227	     -7.36825976	      9.69468384	     28.01508460	     71.25876462
      0.00416670	     -3.28915403	     -0.12600432	     34.58561727	     -1.01531121	      1.29942352	     -0.05827399	      6.04430214	     -0.64391724	    -14.80193314	     17.67027406	      0.30840446	      3.96043404	    -31.79555020	     -6.98995908	     12.72090643	      2.34192045	     32.71190440	     16.69229366	      0.29133548	      6.82912760	      1.65275640	     -6.98995908	     -7.45871265	     -1.44332498	     15.35748440	     14.92950947	     -5.90294075	     43.50725274	     23.54982096	     68.26615720	     12.24115653	     -7.46050671	     11.25337517	     27.36913387	     70.83679168
      0.00833330	     -3.81456466	     -0.72237445	     35.55636866	     -1.01545772	      1.29803144	     -0.05827906	      6.69344250	     -0.45681224	    -16.49135741	     17.42189061	      0.30406935	      3.81048838	    -32.24855737	     -7.22811892	     13.62299344	      2.27998093	     34.70295931	     16.38753681	      0.28601647	      6.48253736	      1.13184942	     -7.22811892	     -6.83972367	     -1.56425876	     15.26045550	     14.56372307	     -5.43928845	     40.67939153	     23.52576862	     78.33486623	     13.89184764	     -7.28209774	     14.17148812	     27.02009441	     68.55367885
      0.01250000	     -3.80240693	     -0.57988881	     36.23980607	     -1.01648403	      1.29812618	     -0.05803385	      6.79747023	     -0.57601333	    -17.28770170	     17.89933331	      0.31240230	      4.86299861	    -32.40182347	     -7.36097770	     13.57659343	      2.57217411	     35.96966377	     16.24144866	      0.28346675	      5.95706552	     -0.30962320	     -7.36097770	     -7.32478199	     -1.94578027	     15.30222335	     14.85156092	     -5.63445560	     42.25694907	     24.02064845	     76.12171522	     14.92723043	     -7.04200403	     15.07259319	     26.56817800	     67.13698582
      0.01666670	     -3.90725224	     -0.70461272	     36.65224830	     -1.01646240	      1.29796757	     -0.05842877	      7.08581421	     -0.64210664	    -17.97292125	     18.27258106	      0.31891670	      5.25930177	    -32.49787988	     -7.46737141	     13.84498276	      2.72872219	     36.68106323	     16.43963942	      0.28692584	      5.71884211	     -1.09478412	     -7.46737141	     -7.41846317	     -1.97520777	     15.09308962	     14.77625261	     -5.67802844	     41.56631585	     24.69536916	     83.65460609	     15.99572876	     -6.84547286	     15.83870478	     26.36522236	     68.70099906
      0.02083330	     -3.90576150	     -0.66196569	     36.98895791	     -1.01703043	      1.29813929	     -0.05848187	      7.18846379	     -0.77910445	    -18.39041560	     18.73309107	      0.32695412	      5.78006657	    -32.72697497	     -7.47480201	     13.94209045	      2.98940079	     37.17954360	     16.76525483	      0.29260890	      5.98398870	     -1.72686049	     -7.47480201	     -7.48464717	     -1.98317294	     15.35729339	     14.59847072	     -5.96515647	     42.62446152	     25.34241129	     82.03468492	     16.28110176	     -6.48751563	     15.78012855	     25.96781146	     68.01111246
      0.02500000	     -4.01637651	     -0.69172534	     36.92059452	     -1.01681122	      1.29813233	     -0.05873134	      7.40101246	     -0.85491514	    -18.67407978	     19.00272278	      0.33166008	      6.15361574	    -32.81939073	     -7.49078401	     14.14893969	      3.17123356	     37.66512992	     17.24002031	      0.30089512	      6.12669510	     -2.48732309	     -7.49078401	     -7.44681090	     -1.98564375	     15.39192456	     14.59200418	     -6.39376294	     43.43271485	     26.12746878	     85.85797828	     16.65819935	     -6.53191927	     17.00935637	     25.84319114	     69.64928132
      0.02916670	     -4.05350452	     -0.70037131	     36.79119456	     -1.01674446	      1.29853452	     -0.05823001	      7.49966063	     -0.95386933	    -18.87743967	     19.23948618	      0.33579238	      6.09769125	    -32.97763669	     -7.49331121	     14.22883464	      3.31894170	     37.94098698	     17.49583696	      0.30535996	      5.92015339	     -3.25877750	     -7.49331121	     -7.45101909	     -1.86353552	     15.76131978	     14.58272438	     -6.75067823	     44.79885656	     26.77594678	     84.55488611	     16.68801323	     -6.50880071	     17.54930222	     25.89654778	     69.36543285
      0.03333330	     -4.13487038	     -0.68504535	     36.60868866	     -1.01648198	      1.30155055	     -0.05845050	      7.55319656	     -1.03982115	    -18.97091174	     19.17991752	      0.33475271	      5.87347301	    -33.04186999	     -7.49542537	     14.26334347	      3.44726072	     38.16717270	     17.59124680	      0.30702518	      5.71357001	     -3.86786822	     -7.49542537	     -7.58568782	     -1.84210615	     15.72604499	     14.76273875	     -6.97714363	     45.97264530	     27.00179311	     83.54879475	     17.03634620	     -6.64541482	     18.57640294	     25.90575499	     69.55197416
